<svg width="1048" height="340" viewBox="0 0 1048 340" fill="none" xmlns="http://www.w3.org/2000/svg">
<path fill-rule="evenodd" clip-rule="evenodd" d="M239.388 0V48.5714H242.857V0H246.327V48.5714H253.265V97.1429H263.673L263.673 159.592H270.612L270.612 263.673H298.367V256.735V228.98V222.041H343.469V187.347H350.408V180.408H381.633V187.347H385.102V222.041H402.449V228.98H437.143V187.347H451.02V180.408H499.592V187.347H513.469V222.041H541.224V228.98H565.51V215.102H572.449V228.98H589.796V222.041H603.673V138.776H621.02V131.837H634.898V138.776H638.367V228.98H652.245V180.408V170H659.184V152.653H666.122V149.184H673.061V152.653H683.469V180.408H686.939V256.735H700.816V97.1429H711.224V90.2041H725.102V76.3265H732.041V90.2041H749.388V97.1429H756.327V256.735H763.265V180.408H770.204V173.469H804.898V166.531H811.837V145.714H818.776V166.531H825.714V173.469H832.653V180.408H839.592V166.531H881.224V180.408H888.163V256.735H895.102V228.98H902.041V222.041V215.102H908.98V222.041H915.918V215.102H922.857V201.224H929.796V215.102H936.735V208.163H943.673V215.102H950.612V222.041V228.98H957.551V235.918H978.367V208.163V201.224V152.653H985.306V97.1429H992.245V152.653H1006.12V83.2653H1013.06V152.653H1020V201.224H1033.88V256.735H1047.76V267H1048V340H1047.76H298.367H0V267V263.673H6.93878V249.796H13.8776V235.918H41.6327V215.102H62.449V152.653H69.3882V104.082H72.8571V93.6735H76.3265V86.7347H79.7959V83.2653H86.7347V79.7959H100.612V76.3265H111.02V79.7959V83.2653V86.7347V93.6735V97.1429V100.612V104.082H114.49L114.49 152.653H117.959L117.958 215.102L117.959 235.918H131.836V236H131.837V215.102H142.245V176.939H145.714V166.531H152.653V159.592H156.122V156.122H159.592V159.592H163.061V166.531H170V176.939H173.469V215.102H187.346L187.347 263.673H201.224V242.857H215.102V159.592H222.041V97.1429H225.51V48.5714H232.449V0H239.388Z" fill="white"/>
</svg>
