<svg width="970" height="179" viewBox="0 0 970 179" fill="none" xmlns="http://www.w3.org/2000/svg">
<path opacity="0.5" d="M84.7447 14.6353C86.2415 10.0287 92.7585 10.0287 94.2553 14.6353L108.471 58.3881C109.141 60.4482 111.061 61.843 113.227 61.843H159.231C164.075 61.843 166.089 68.0411 162.17 70.8881L124.952 97.9288C123.199 99.202 122.466 101.459 123.135 103.519L137.351 147.272C138.848 151.878 133.576 155.709 129.657 152.862L92.4389 125.821C90.6865 124.548 88.3135 124.548 86.5611 125.821L49.3427 152.862C45.4241 155.709 40.1517 151.878 41.6485 147.272L55.8647 103.519C56.534 101.459 55.8007 99.202 54.0483 97.9288L16.8299 70.8881C12.9114 68.0411 14.9252 61.843 19.7689 61.843H65.7733C67.9394 61.843 69.8592 60.4482 70.5286 58.3881L84.7447 14.6353Z" fill="white"/>
<path opacity="0.5" fill-rule="evenodd" clip-rule="evenodd" d="M355 33C352.239 33 350 35.2386 350 38V121C350 134.807 361.193 146 375 146H476C489.807 146 501 134.807 501 121V38C501 35.2386 498.761 33 496 33H355ZM457 111.714C457 110.768 456.232 110 455.286 110H378V116L452.714 116C455.081 116 457 114.081 457 111.714ZM441.286 87C442.232 87 443 87.7675 443 88.7143C443 91.0812 441.081 93 438.714 93L378 93V87L441.286 87ZM473 65.7143C473 64.7675 472.232 64 471.286 64L378 64V70L468.714 70C471.081 70 473 68.0812 473 65.7143Z" fill="white"/>
<g opacity="0.5">
<mask id="path-3-inside-1_45_82" fill="white">
<path fill-rule="evenodd" clip-rule="evenodd" d="M764.967 64.2984C764.967 84.4478 748.633 100.782 728.484 100.782C708.334 100.782 692 84.4478 692 64.2984C692 44.149 708.334 27.8147 728.484 27.8147C748.633 27.8147 764.967 44.149 764.967 64.2984ZM748.716 117.05C742.435 119.461 735.614 120.782 728.484 120.782C697.289 120.782 672 95.4935 672 64.2984C672 33.1033 697.289 7.8147 728.484 7.8147C759.679 7.8147 784.967 33.1033 784.967 64.2984C784.967 81.2794 777.474 96.5103 765.613 106.865L797.391 156.898C799.76 160.628 798.656 165.572 794.927 167.941L791.783 169.937C788.053 172.306 783.109 171.203 780.741 167.473L748.716 117.05Z"/>
</mask>
<path fill-rule="evenodd" clip-rule="evenodd" d="M764.967 64.2984C764.967 84.4478 748.633 100.782 728.484 100.782C708.334 100.782 692 84.4478 692 64.2984C692 44.149 708.334 27.8147 728.484 27.8147C748.633 27.8147 764.967 44.149 764.967 64.2984ZM748.716 117.05C742.435 119.461 735.614 120.782 728.484 120.782C697.289 120.782 672 95.4935 672 64.2984C672 33.1033 697.289 7.8147 728.484 7.8147C759.679 7.8147 784.967 33.1033 784.967 64.2984C784.967 81.2794 777.474 96.5103 765.613 106.865L797.391 156.898C799.76 160.628 798.656 165.572 794.927 167.941L791.783 169.937C788.053 172.306 783.109 171.203 780.741 167.473L748.716 117.05Z" fill="#F2F2F2"/>
<path d="M748.716 117.05L765.599 106.328L756.826 92.5156L741.55 98.3783L748.716 117.05ZM765.613 106.865L752.46 91.7982L739.524 103.092L748.731 117.587L765.613 106.865ZM797.391 156.898L780.508 167.621L780.508 167.621L797.391 156.898ZM794.927 167.941L784.204 151.058L784.204 151.058L794.927 167.941ZM791.783 169.937L802.505 186.82L802.505 186.82L791.783 169.937ZM780.741 167.473L763.858 178.196L763.858 178.196L780.741 167.473ZM728.484 120.782C759.679 120.782 784.967 95.4935 784.967 64.2984H744.967C744.967 73.4021 737.587 80.7821 728.484 80.7821V120.782ZM672 64.2984C672 95.4935 697.289 120.782 728.484 120.782V80.7821C719.38 80.7821 712 73.4021 712 64.2984H672ZM728.484 7.8147C697.289 7.8147 672 33.1033 672 64.2984H712C712 55.1947 719.38 47.8147 728.484 47.8147V7.8147ZM784.967 64.2984C784.967 33.1033 759.679 7.8147 728.484 7.8147V47.8147C737.587 47.8147 744.967 55.1947 744.967 64.2984H784.967ZM728.484 140.782C738.102 140.782 747.35 138.997 755.882 135.723L741.55 98.3783C737.52 99.925 733.125 100.782 728.484 100.782V140.782ZM652 64.2984C652 106.539 686.243 140.782 728.484 140.782V100.782C708.334 100.782 692 84.4478 692 64.2984H652ZM728.484 -12.1853C686.243 -12.1853 652 22.0576 652 64.2984H692C692 44.149 708.334 27.8147 728.484 27.8147V-12.1853ZM804.967 64.2984C804.967 22.0576 770.724 -12.1853 728.484 -12.1853V27.8147C748.633 27.8147 764.967 44.149 764.967 64.2984H804.967ZM778.766 121.931C794.793 107.94 804.967 87.2957 804.967 64.2984H764.967C764.967 75.2632 760.155 85.0804 752.46 91.7982L778.766 121.931ZM748.731 117.587L780.508 167.621L814.274 146.176L782.496 96.1421L748.731 117.587ZM780.508 167.621C776.955 162.027 778.61 154.611 784.204 151.058L805.649 184.823C818.703 176.533 822.564 159.23 814.274 146.176L780.508 167.621ZM784.204 151.058L781.06 153.055L802.505 186.82L805.649 184.823L784.204 151.058ZM781.06 153.055C786.655 149.501 794.07 151.156 797.623 156.751L763.858 178.196C772.149 191.249 789.452 195.111 802.505 186.82L781.06 153.055ZM797.623 156.751L765.599 106.328L731.833 127.773L763.858 178.196L797.623 156.751Z" fill="white" mask="url(#path-3-inside-1_45_82)"/>
</g>
</svg>
