<svg width="100" height="100" viewBox="0 0 100 100" fill="none" xmlns="http://www.w3.org/2000/svg">
<path d="M75 -1.09278e-06C88.8071 -4.89256e-07 100 11.1929 100 25L100 75C100 88.8071 88.8071 100 75 100L25 100C11.1929 100 -6.26607e-06 88.8071 -5.66254e-06 75L-3.47697e-06 25C-2.87344e-06 11.1929 11.1929 -3.88188e-06 25 -3.27835e-06L75 -1.09278e-06Z" fill="#0E1A32"/>
<circle cx="50" cy="22" r="12" transform="rotate(90 50 22)" fill="white"/>
<circle cx="50" cy="50" r="12" transform="rotate(90 50 50)" fill="white"/>
<circle cx="50" cy="78" r="12" transform="rotate(90 50 78)" fill="white"/>
</svg>
