<svg width="240" height="113" viewBox="0 0 240 113" fill="none" xmlns="http://www.w3.org/2000/svg">
<path opacity="0.5" fill-rule="evenodd" clip-rule="evenodd" d="M5 0C2.23858 0 0 2.23858 0 5V88C0 101.807 11.1929 113 25 113H126C139.807 113 151 101.807 151 88V5C151 2.23858 148.761 0 146 0H5ZM107 78.7143C107 77.7675 106.232 77 105.286 77H28V83L102.714 83C105.081 83 107 81.0812 107 78.7143ZM91.2857 54C92.2325 54 93 54.7675 93 55.7143C93 58.0812 91.0812 60 88.7143 60L28 60V54L91.2857 54ZM123 32.7143C123 31.7675 122.232 31 121.286 31L28 31V37L118.714 37C121.081 37 123 35.0812 123 32.7143Z" fill="white"/>
</svg>
